<mxfile host="65bd71144e">
    <diagram id="R2lEEEUBdFMjLlhIrx00" name="Page-1">
        <mxGraphModel dx="2381" dy="1198" grid="1" gridSize="10" guides="1" tooltips="1" connect="1" arrows="1" fold="1" page="1" pageScale="1" pageWidth="850" pageHeight="1100" math="0" shadow="0" extFonts="Permanent Marker^https://fonts.googleapis.com/css?family=Permanent+Marker">
            <root>
                <mxCell id="0"/>
                <mxCell id="1" parent="0"/>
                <mxCell id="235" style="edgeStyle=none;html=1;entryX=1;entryY=0.5;entryDx=0;entryDy=0;" parent="1" source="Ci3cu0jDoSGofdBfNgbZ-3" target="Ci3cu0jDoSGofdBfNgbZ-5" edge="1">
                    <mxGeometry relative="1" as="geometry"/>
                </mxCell>
                <mxCell id="243" value="Admin Details" style="edgeLabel;html=1;align=center;verticalAlign=middle;resizable=0;points=[];" parent="235" vertex="1" connectable="0">
                    <mxGeometry x="0.2222" y="-1" relative="1" as="geometry">
                        <mxPoint as="offset"/>
                    </mxGeometry>
                </mxCell>
                <mxCell id="252" style="edgeStyle=none;jumpStyle=arc;html=1;entryX=1;entryY=0.5;entryDx=0;entryDy=0;" parent="1" source="Ci3cu0jDoSGofdBfNgbZ-3" target="200" edge="1">
                    <mxGeometry relative="1" as="geometry">
                        <Array as="points">
                            <mxPoint x="720" y="790"/>
                        </Array>
                    </mxGeometry>
                </mxCell>
                <mxCell id="282" value="Profile Detail" style="edgeLabel;html=1;align=center;verticalAlign=middle;resizable=0;points=[];" parent="252" vertex="1" connectable="0">
                    <mxGeometry x="0.6449" y="2" relative="1" as="geometry">
                        <mxPoint as="offset"/>
                    </mxGeometry>
                </mxCell>
                <mxCell id="269" style="edgeStyle=none;html=1;exitX=0;exitY=1;exitDx=0;exitDy=0;entryX=0.737;entryY=0.018;entryDx=0;entryDy=0;startArrow=none;startFill=0;endArrow=classic;endFill=1;entryPerimeter=0;jumpStyle=arc;" parent="1" source="Ci3cu0jDoSGofdBfNgbZ-3" target="173" edge="1">
                    <mxGeometry relative="1" as="geometry">
                        <Array as="points">
                            <mxPoint x="640" y="290"/>
                        </Array>
                    </mxGeometry>
                </mxCell>
                <mxCell id="272" value="Approval" style="edgeLabel;html=1;align=center;verticalAlign=middle;resizable=0;points=[];" parent="269" vertex="1" connectable="0">
                    <mxGeometry x="0.0014" y="-1" relative="1" as="geometry">
                        <mxPoint y="-11" as="offset"/>
                    </mxGeometry>
                </mxCell>
                <mxCell id="288" style="edgeStyle=none;html=1;exitX=0.25;exitY=1;exitDx=0;exitDy=0;entryX=1;entryY=0.5;entryDx=0;entryDy=0;jumpStyle=arc;endArrow=none;endFill=0;startArrow=classic;startFill=1;" parent="1" source="Ci3cu0jDoSGofdBfNgbZ-3" target="204" edge="1">
                    <mxGeometry relative="1" as="geometry">
                        <Array as="points">
                            <mxPoint x="690" y="950"/>
                        </Array>
                    </mxGeometry>
                </mxCell>
                <mxCell id="290" style="edgeStyle=none;html=1;exitX=0.667;exitY=1;exitDx=0;exitDy=0;entryX=1;entryY=0.5;entryDx=0;entryDy=0;jumpStyle=arc;exitPerimeter=0;" parent="1" source="Ci3cu0jDoSGofdBfNgbZ-3" target="210" edge="1">
                    <mxGeometry relative="1" as="geometry">
                        <Array as="points">
                            <mxPoint x="740" y="1110"/>
                        </Array>
                    </mxGeometry>
                </mxCell>
                <mxCell id="Ci3cu0jDoSGofdBfNgbZ-3" value="Admin" style="rounded=0;whiteSpace=wrap;html=1;" parent="1" vertex="1">
                    <mxGeometry x="660" y="230" width="120" height="60" as="geometry"/>
                </mxCell>
                <mxCell id="260" style="edgeStyle=none;html=1;exitX=0.5;exitY=0;exitDx=0;exitDy=0;entryX=0;entryY=0.5;entryDx=0;entryDy=0;" parent="1" source="Ci3cu0jDoSGofdBfNgbZ-5" target="Ci3cu0jDoSGofdBfNgbZ-19" edge="1">
                    <mxGeometry relative="1" as="geometry">
                        <Array as="points">
                            <mxPoint x="385" y="210"/>
                            <mxPoint x="890" y="210"/>
                            <mxPoint x="890" y="245"/>
                        </Array>
                    </mxGeometry>
                </mxCell>
                <mxCell id="262" value="Account Details" style="edgeLabel;html=1;align=center;verticalAlign=middle;resizable=0;points=[];" parent="260" vertex="1" connectable="0">
                    <mxGeometry x="0.2037" y="-1" relative="1" as="geometry">
                        <mxPoint as="offset"/>
                    </mxGeometry>
                </mxCell>
                <mxCell id="Ci3cu0jDoSGofdBfNgbZ-5" value="1.0" style="swimlane;startSize=23;rounded=1;" parent="1" vertex="1">
                    <mxGeometry x="290" y="230" width="190" height="60" as="geometry"/>
                </mxCell>
                <mxCell id="Ci3cu0jDoSGofdBfNgbZ-6" value="Register" style="text;html=1;align=center;verticalAlign=middle;resizable=0;points=[];autosize=1;strokeColor=none;fillColor=none;rotation=0;" parent="Ci3cu0jDoSGofdBfNgbZ-5" vertex="1">
                    <mxGeometry x="60" y="30" width="70" height="30" as="geometry"/>
                </mxCell>
                <mxCell id="Ci3cu0jDoSGofdBfNgbZ-19" value="Accounts" style="shape=partialRectangle;fillColor=none;align=left;verticalAlign=middle;strokeColor=default;spacingLeft=34;rotatable=0;points=[[0,0.5],[1,0.5]];portConstraint=eastwest;dropTarget=0;strokeWidth=1;perimeterSpacing=1;right=0;" parent="1" vertex="1">
                    <mxGeometry x="920" y="230" width="90" height="30" as="geometry"/>
                </mxCell>
                <mxCell id="Ci3cu0jDoSGofdBfNgbZ-20" value="D1" style="shape=partialRectangle;top=0;left=0;bottom=0;fillColor=none;stokeWidth=1;dashed=1;align=left;verticalAlign=middle;spacingLeft=4;spacingRight=4;overflow=hidden;rotatable=0;points=[];portConstraint=eastwest;part=1;strokeColor=default;" parent="Ci3cu0jDoSGofdBfNgbZ-19" vertex="1" connectable="0">
                    <mxGeometry width="30" height="30" as="geometry"/>
                </mxCell>
                <mxCell id="315" style="edgeStyle=none;html=1;exitX=0;exitY=0.5;exitDx=0;exitDy=0;entryX=1;entryY=0.5;entryDx=0;entryDy=0;" parent="1" source="57" target="208" edge="1">
                    <mxGeometry relative="1" as="geometry">
                        <mxPoint x="490" y="1030" as="targetPoint"/>
                        <Array as="points">
                            <mxPoint x="919" y="1030"/>
                        </Array>
                    </mxGeometry>
                </mxCell>
                <mxCell id="57" value="Rooms" style="shape=partialRectangle;fillColor=none;align=left;verticalAlign=middle;strokeColor=default;spacingLeft=34;rotatable=0;points=[[0,0.5],[1,0.5]];portConstraint=eastwest;dropTarget=0;strokeWidth=1;perimeterSpacing=1;right=0;" parent="1" vertex="1">
                    <mxGeometry x="920" y="415" width="90" height="30" as="geometry"/>
                </mxCell>
                <mxCell id="58" value="D2" style="shape=partialRectangle;top=0;left=0;bottom=0;fillColor=none;stokeWidth=1;dashed=1;align=left;verticalAlign=middle;spacingLeft=4;spacingRight=4;overflow=hidden;rotatable=0;points=[];portConstraint=eastwest;part=1;strokeColor=default;" parent="57" connectable="0" vertex="1">
                    <mxGeometry width="30" height="30" as="geometry"/>
                </mxCell>
                <mxCell id="216" style="edgeStyle=none;html=1;entryX=0;entryY=0.5;entryDx=0;entryDy=0;" parent="1" source="139" target="Ci3cu0jDoSGofdBfNgbZ-5" edge="1">
                    <mxGeometry relative="1" as="geometry">
                        <Array as="points">
                            <mxPoint x="-20" y="260"/>
                            <mxPoint x="150" y="260"/>
                        </Array>
                    </mxGeometry>
                </mxCell>
                <mxCell id="223" value="User Details" style="edgeLabel;html=1;align=center;verticalAlign=middle;resizable=0;points=[];" parent="216" vertex="1" connectable="0">
                    <mxGeometry x="-0.1394" y="-2" relative="1" as="geometry">
                        <mxPoint as="offset"/>
                    </mxGeometry>
                </mxCell>
                <mxCell id="219" style="edgeStyle=none;html=1;exitX=1;exitY=0.667;exitDx=0;exitDy=0;exitPerimeter=0;jumpStyle=arc;" parent="1" edge="1">
                    <mxGeometry relative="1" as="geometry">
                        <mxPoint x="40" y="343.02000000000004" as="sourcePoint"/>
                        <mxPoint x="290" y="343" as="targetPoint"/>
                        <Array as="points">
                            <mxPoint x="80" y="343"/>
                            <mxPoint x="140" y="343"/>
                        </Array>
                    </mxGeometry>
                </mxCell>
                <mxCell id="224" value="Login Details" style="edgeLabel;html=1;align=center;verticalAlign=middle;resizable=0;points=[];" parent="219" vertex="1" connectable="0">
                    <mxGeometry x="-0.1874" y="1" relative="1" as="geometry">
                        <mxPoint as="offset"/>
                    </mxGeometry>
                </mxCell>
                <mxCell id="244" style="edgeStyle=none;html=1;entryX=0;entryY=0.5;entryDx=0;entryDy=0;exitX=0;exitY=0.5;exitDx=0;exitDy=0;jumpStyle=arc;" parent="1" source="139" target="196" edge="1">
                    <mxGeometry relative="1" as="geometry">
                        <Array as="points">
                            <mxPoint x="-150" y="340"/>
                            <mxPoint x="-150" y="610"/>
                            <mxPoint x="-50" y="610"/>
                            <mxPoint x="120" y="610"/>
                        </Array>
                    </mxGeometry>
                </mxCell>
                <mxCell id="245" value="Property Details" style="edgeLabel;html=1;align=center;verticalAlign=middle;resizable=0;points=[];" parent="244" vertex="1" connectable="0">
                    <mxGeometry x="0.4068" y="-1" relative="1" as="geometry">
                        <mxPoint as="offset"/>
                    </mxGeometry>
                </mxCell>
                <mxCell id="258" style="edgeStyle=none;jumpStyle=arc;html=1;entryX=0;entryY=0.5;entryDx=0;entryDy=0;exitX=0.25;exitY=0;exitDx=0;exitDy=0;" parent="1" source="139" target="202" edge="1">
                    <mxGeometry relative="1" as="geometry">
                        <Array as="points">
                            <mxPoint x="-50" y="270"/>
                            <mxPoint x="-200" y="270"/>
                            <mxPoint x="-200" y="870"/>
                        </Array>
                    </mxGeometry>
                </mxCell>
                <mxCell id="259" value="Ratin details" style="edgeLabel;html=1;align=center;verticalAlign=middle;resizable=0;points=[];" parent="258" vertex="1" connectable="0">
                    <mxGeometry x="0.4595" y="-2" relative="1" as="geometry">
                        <mxPoint x="36" as="offset"/>
                    </mxGeometry>
                </mxCell>
                <mxCell id="279" style="edgeStyle=none;html=1;exitX=0;exitY=0.25;exitDx=0;exitDy=0;entryX=0;entryY=0.75;entryDx=0;entryDy=0;startArrow=none;startFill=0;endArrow=classic;endFill=1;" parent="1" source="139" target="200" edge="1">
                    <mxGeometry relative="1" as="geometry">
                        <Array as="points">
                            <mxPoint x="-170" y="325"/>
                            <mxPoint x="-170" y="805"/>
                        </Array>
                    </mxGeometry>
                </mxCell>
                <mxCell id="280" value="Profile Detail" style="edgeLabel;html=1;align=center;verticalAlign=middle;resizable=0;points=[];" parent="279" vertex="1" connectable="0">
                    <mxGeometry x="0.2002" y="1" relative="1" as="geometry">
                        <mxPoint as="offset"/>
                    </mxGeometry>
                </mxCell>
                <mxCell id="287" style="edgeStyle=none;html=1;exitX=0;exitY=0;exitDx=0;exitDy=0;entryX=0;entryY=0.25;entryDx=0;entryDy=0;jumpStyle=arc;" parent="1" source="139" target="204" edge="1">
                    <mxGeometry relative="1" as="geometry">
                        <Array as="points">
                            <mxPoint x="-240" y="310"/>
                            <mxPoint x="-240" y="935"/>
                        </Array>
                    </mxGeometry>
                </mxCell>
                <mxCell id="289" style="edgeStyle=none;html=1;exitX=0;exitY=1;exitDx=0;exitDy=0;entryX=0;entryY=0.5;entryDx=0;entryDy=0;" parent="1" source="139" target="208" edge="1">
                    <mxGeometry relative="1" as="geometry">
                        <Array as="points">
                            <mxPoint x="-80" y="1030"/>
                        </Array>
                    </mxGeometry>
                </mxCell>
                <mxCell id="139" value="User" style="rounded=0;whiteSpace=wrap;html=1;" parent="1" vertex="1">
                    <mxGeometry x="-80" y="310" width="120" height="60" as="geometry"/>
                </mxCell>
                <mxCell id="229" style="edgeStyle=none;html=1;entryX=0.997;entryY=0.583;entryDx=0;entryDy=0;entryPerimeter=0;exitX=0;exitY=0.216;exitDx=0;exitDy=0;exitPerimeter=0;" parent="1" source="169" edge="1">
                    <mxGeometry relative="1" as="geometry">
                        <mxPoint x="287.90999999999985" y="327.97999999999996" as="sourcePoint"/>
                        <mxPoint x="39.99999999999987" y="327.98" as="targetPoint"/>
                        <Array as="points">
                            <mxPoint x="230" y="328"/>
                            <mxPoint x="170" y="328"/>
                        </Array>
                    </mxGeometry>
                </mxCell>
                <mxCell id="231" value="Login Verfication" style="edgeLabel;html=1;align=center;verticalAlign=middle;resizable=0;points=[];" parent="229" vertex="1" connectable="0">
                    <mxGeometry x="0.6179" y="-1" relative="1" as="geometry">
                        <mxPoint x="62" y="1" as="offset"/>
                    </mxGeometry>
                </mxCell>
                <mxCell id="263" style="edgeStyle=none;html=1;exitX=1;exitY=0.5;exitDx=0;exitDy=0;startArrow=classic;startFill=1;endArrow=none;endFill=0;jumpStyle=arc;" parent="1" source="169" edge="1">
                    <mxGeometry relative="1" as="geometry">
                        <mxPoint x="940" y="260" as="targetPoint"/>
                        <Array as="points">
                            <mxPoint x="940" y="345"/>
                        </Array>
                    </mxGeometry>
                </mxCell>
                <mxCell id="169" value="2.0" style="swimlane;startSize=23;rounded=1;" parent="1" vertex="1">
                    <mxGeometry x="290" y="315" width="190" height="60" as="geometry"/>
                </mxCell>
                <mxCell id="170" value="Login" style="text;html=1;align=center;verticalAlign=middle;resizable=0;points=[];autosize=1;strokeColor=none;fillColor=none;rotation=0;" parent="169" vertex="1">
                    <mxGeometry x="70" y="30" width="50" height="30" as="geometry"/>
                </mxCell>
                <mxCell id="264" style="edgeStyle=none;html=1;exitX=1;exitY=0.5;exitDx=0;exitDy=0;entryX=0;entryY=0.5;entryDx=0;entryDy=0;startArrow=classic;startFill=1;endArrow=none;endFill=0;jumpStyle=arc;" parent="1" source="171" target="57" edge="1">
                    <mxGeometry relative="1" as="geometry">
                        <Array as="points">
                            <mxPoint x="900" y="430"/>
                        </Array>
                    </mxGeometry>
                </mxCell>
                <mxCell id="273" value="Room Detail" style="edgeLabel;html=1;align=center;verticalAlign=middle;resizable=0;points=[];" parent="264" vertex="1" connectable="0">
                    <mxGeometry x="0.2212" y="-1" relative="1" as="geometry">
                        <mxPoint x="22" y="-1" as="offset"/>
                    </mxGeometry>
                </mxCell>
                <mxCell id="171" value="3.0" style="swimlane;startSize=23;rounded=1;" parent="1" vertex="1">
                    <mxGeometry x="290" y="400" width="190" height="60" as="geometry"/>
                </mxCell>
                <mxCell id="172" value="Add, edit, delete room" style="text;html=1;align=center;verticalAlign=middle;resizable=0;points=[];autosize=1;strokeColor=none;fillColor=none;rotation=0;" parent="171" vertex="1">
                    <mxGeometry x="25" y="30" width="140" height="30" as="geometry"/>
                </mxCell>
                <mxCell id="266" style="edgeStyle=none;html=1;startArrow=classic;startFill=1;endArrow=none;endFill=0;" parent="1" edge="1">
                    <mxGeometry relative="1" as="geometry">
                        <mxPoint x="480" y="440" as="targetPoint"/>
                        <mxPoint x="580" y="490" as="sourcePoint"/>
                        <Array as="points">
                            <mxPoint x="580" y="440"/>
                        </Array>
                    </mxGeometry>
                </mxCell>
                <mxCell id="275" value="Room Detail" style="edgeLabel;html=1;align=center;verticalAlign=middle;resizable=0;points=[];" parent="266" vertex="1" connectable="0">
                    <mxGeometry x="0.6369" y="1" relative="1" as="geometry">
                        <mxPoint x="23" as="offset"/>
                    </mxGeometry>
                </mxCell>
                <mxCell id="267" style="edgeStyle=none;html=1;exitX=0.5;exitY=0;exitDx=0;exitDy=0;entryX=0;entryY=0.75;entryDx=0;entryDy=0;startArrow=none;startFill=0;endArrow=classic;endFill=1;jumpStyle=arc;" parent="1" source="173" target="Ci3cu0jDoSGofdBfNgbZ-3" edge="1">
                    <mxGeometry relative="1" as="geometry">
                        <Array as="points">
                            <mxPoint x="595" y="275"/>
                        </Array>
                    </mxGeometry>
                </mxCell>
                <mxCell id="271" value="Room Detail" style="edgeLabel;html=1;align=center;verticalAlign=middle;resizable=0;points=[];" parent="267" vertex="1" connectable="0">
                    <mxGeometry x="-0.3128" relative="1" as="geometry">
                        <mxPoint as="offset"/>
                    </mxGeometry>
                </mxCell>
                <mxCell id="268" style="edgeStyle=none;html=1;exitX=1;exitY=0.5;exitDx=0;exitDy=0;entryX=0.435;entryY=0.945;entryDx=0;entryDy=0;entryPerimeter=0;startArrow=none;startFill=0;endArrow=classic;endFill=1;" parent="1" source="173" target="57" edge="1">
                    <mxGeometry relative="1" as="geometry">
                        <Array as="points">
                            <mxPoint x="959" y="520"/>
                        </Array>
                    </mxGeometry>
                </mxCell>
                <mxCell id="274" value="Room Detail" style="edgeLabel;html=1;align=center;verticalAlign=middle;resizable=0;points=[];" parent="268" vertex="1" connectable="0">
                    <mxGeometry x="0.0209" y="1" relative="1" as="geometry">
                        <mxPoint as="offset"/>
                    </mxGeometry>
                </mxCell>
                <mxCell id="270" style="edgeStyle=none;html=1;exitX=0;exitY=1;exitDx=0;exitDy=0;entryX=1;entryY=0.5;entryDx=0;entryDy=0;startArrow=none;startFill=0;endArrow=classic;endFill=1;" parent="1" source="173" target="215" edge="1">
                    <mxGeometry relative="1" as="geometry"/>
                </mxCell>
                <mxCell id="276" value="Room Aporoval" style="edgeLabel;html=1;align=center;verticalAlign=middle;resizable=0;points=[];" parent="270" vertex="1" connectable="0">
                    <mxGeometry x="-0.1505" relative="1" as="geometry">
                        <mxPoint as="offset"/>
                    </mxGeometry>
                </mxCell>
                <mxCell id="173" value="4.0" style="swimlane;startSize=23;rounded=1;" parent="1" vertex="1">
                    <mxGeometry x="500" y="490" width="190" height="60" as="geometry"/>
                </mxCell>
                <mxCell id="174" value="Approve / reject" style="text;html=1;align=center;verticalAlign=middle;resizable=0;points=[];autosize=1;strokeColor=none;fillColor=none;rotation=0;" parent="173" vertex="1">
                    <mxGeometry x="35" y="30" width="110" height="30" as="geometry"/>
                </mxCell>
                <mxCell id="277" style="edgeStyle=none;html=1;exitX=1;exitY=0.5;exitDx=0;exitDy=0;entryX=0.884;entryY=0.984;entryDx=0;entryDy=0;entryPerimeter=0;startArrow=none;startFill=0;endArrow=classic;endFill=1;" parent="1" source="196" target="57" edge="1">
                    <mxGeometry relative="1" as="geometry">
                        <Array as="points">
                            <mxPoint x="1000" y="610"/>
                        </Array>
                    </mxGeometry>
                </mxCell>
                <mxCell id="278" value="Room Detail" style="edgeLabel;html=1;align=center;verticalAlign=middle;resizable=0;points=[];" parent="277" vertex="1" connectable="0">
                    <mxGeometry x="0.0532" y="3" relative="1" as="geometry">
                        <mxPoint x="29" y="3" as="offset"/>
                    </mxGeometry>
                </mxCell>
                <mxCell id="196" value="5.0" style="swimlane;startSize=23;rounded=1;" parent="1" vertex="1">
                    <mxGeometry x="290" y="580" width="190" height="60" as="geometry"/>
                </mxCell>
                <mxCell id="197" value="Search Property" style="text;html=1;align=center;verticalAlign=middle;resizable=0;points=[];autosize=1;strokeColor=none;fillColor=none;rotation=0;" parent="196" vertex="1">
                    <mxGeometry x="35" y="30" width="110" height="30" as="geometry"/>
                </mxCell>
                <mxCell id="307" style="edgeStyle=none;html=1;entryX=0.468;entryY=0.975;entryDx=0;entryDy=0;entryPerimeter=0;exitX=1.004;exitY=0.374;exitDx=0;exitDy=0;exitPerimeter=0;" parent="1" source="198" target="298" edge="1">
                    <mxGeometry relative="1" as="geometry">
                        <mxPoint x="990" y="685.4285714285713" as="targetPoint"/>
                        <mxPoint x="490" y="690" as="sourcePoint"/>
                        <Array as="points">
                            <mxPoint x="962" y="692"/>
                        </Array>
                    </mxGeometry>
                </mxCell>
                <mxCell id="198" value="6.0" style="swimlane;startSize=23;rounded=1;" parent="1" vertex="1">
                    <mxGeometry x="290" y="670" width="190" height="60" as="geometry"/>
                </mxCell>
                <mxCell id="199" value="Approve / Disapprove Booking" style="text;html=1;align=center;verticalAlign=middle;resizable=0;points=[];autosize=1;strokeColor=none;fillColor=none;rotation=0;" parent="198" vertex="1">
                    <mxGeometry y="30" width="190" height="30" as="geometry"/>
                </mxCell>
                <mxCell id="283" style="edgeStyle=none;html=1;exitX=1;exitY=1;exitDx=0;exitDy=0;entryX=0.7;entryY=1.032;entryDx=0;entryDy=0;entryPerimeter=0;startArrow=none;startFill=0;endArrow=classic;endFill=1;jumpStyle=arc;" parent="1" source="200" target="Ci3cu0jDoSGofdBfNgbZ-19" edge="1">
                    <mxGeometry relative="1" as="geometry">
                        <Array as="points">
                            <mxPoint x="820" y="820"/>
                            <mxPoint x="820" y="300"/>
                            <mxPoint x="983" y="300"/>
                        </Array>
                    </mxGeometry>
                </mxCell>
                <mxCell id="284" value="Profile Detail" style="edgeLabel;html=1;align=center;verticalAlign=middle;resizable=0;points=[];" parent="283" vertex="1" connectable="0">
                    <mxGeometry x="-0.5305" y="-2" relative="1" as="geometry">
                        <mxPoint as="offset"/>
                    </mxGeometry>
                </mxCell>
                <mxCell id="200" value="7.0" style="swimlane;startSize=23;rounded=1;" parent="1" vertex="1">
                    <mxGeometry x="290" y="760" width="190" height="60" as="geometry"/>
                </mxCell>
                <mxCell id="201" value="Profile edit, delete" style="text;html=1;align=center;verticalAlign=middle;resizable=0;points=[];autosize=1;strokeColor=none;fillColor=none;rotation=0;" parent="200" vertex="1">
                    <mxGeometry x="35" y="30" width="120" height="30" as="geometry"/>
                </mxCell>
                <mxCell id="308" style="edgeStyle=none;html=1;exitX=1;exitY=0.5;exitDx=0;exitDy=0;entryX=0.448;entryY=1.138;entryDx=0;entryDy=0;entryPerimeter=0;" parent="1" source="202" target="300" edge="1">
                    <mxGeometry relative="1" as="geometry">
                        <mxPoint x="1000" y="870" as="targetPoint"/>
                        <Array as="points">
                            <mxPoint x="960" y="870"/>
                        </Array>
                    </mxGeometry>
                </mxCell>
                <mxCell id="202" value="8.0" style="swimlane;startSize=23;rounded=1;" parent="1" vertex="1">
                    <mxGeometry x="290" y="840" width="190" height="60" as="geometry"/>
                </mxCell>
                <mxCell id="203" value="Add rating" style="text;html=1;align=center;verticalAlign=middle;resizable=0;points=[];autosize=1;strokeColor=none;fillColor=none;rotation=0;" parent="202" vertex="1">
                    <mxGeometry x="55" y="30" width="80" height="30" as="geometry"/>
                </mxCell>
                <mxCell id="204" value="9.0" style="swimlane;startSize=23;rounded=1;" parent="1" vertex="1">
                    <mxGeometry x="290" y="920" width="190" height="60" as="geometry"/>
                </mxCell>
                <mxCell id="205" value="View Ratings" style="text;html=1;align=center;verticalAlign=middle;resizable=0;points=[];autosize=1;strokeColor=none;fillColor=none;rotation=0;" parent="204" vertex="1">
                    <mxGeometry x="50" y="30" width="90" height="30" as="geometry"/>
                </mxCell>
                <mxCell id="208" value="10.0" style="swimlane;startSize=23;rounded=1;" parent="1" vertex="1">
                    <mxGeometry x="290" y="1000" width="190" height="60" as="geometry"/>
                </mxCell>
                <mxCell id="209" value="Wishlist" style="text;html=1;align=center;verticalAlign=middle;resizable=0;points=[];autosize=1;strokeColor=none;fillColor=none;rotation=0;" parent="208" vertex="1">
                    <mxGeometry x="65" y="30" width="60" height="30" as="geometry"/>
                </mxCell>
                <mxCell id="210" value="11.0" style="swimlane;startSize=23;rounded=1;" parent="1" vertex="1">
                    <mxGeometry x="290" y="1080" width="190" height="60" as="geometry"/>
                </mxCell>
                <mxCell id="211" value="Download Report" style="text;html=1;align=center;verticalAlign=middle;resizable=0;points=[];autosize=1;strokeColor=none;fillColor=none;rotation=0;" parent="210" vertex="1">
                    <mxGeometry x="35" y="30" width="120" height="30" as="geometry"/>
                </mxCell>
                <mxCell id="217" style="edgeStyle=none;html=1;jumpStyle=arc;" parent="1" source="215" edge="1">
                    <mxGeometry relative="1" as="geometry">
                        <mxPoint x="290" y="280" as="targetPoint"/>
                        <Array as="points">
                            <mxPoint x="-20" y="430"/>
                            <mxPoint x="200" y="430"/>
                            <mxPoint x="200" y="280"/>
                        </Array>
                    </mxGeometry>
                </mxCell>
                <mxCell id="222" value="Landlord Details" style="edgeLabel;html=1;align=center;verticalAlign=middle;resizable=0;points=[];" parent="217" vertex="1" connectable="0">
                    <mxGeometry x="0.0935" y="1" relative="1" as="geometry">
                        <mxPoint x="-110" y="1" as="offset"/>
                    </mxGeometry>
                </mxCell>
                <mxCell id="220" style="edgeStyle=none;html=1;entryX=0;entryY=0.75;entryDx=0;entryDy=0;exitX=0.664;exitY=-0.011;exitDx=0;exitDy=0;exitPerimeter=0;" parent="1" source="215" target="169" edge="1">
                    <mxGeometry relative="1" as="geometry">
                        <Array as="points">
                            <mxPoint y="450"/>
                            <mxPoint x="220" y="450"/>
                            <mxPoint x="220" y="360"/>
                        </Array>
                    </mxGeometry>
                </mxCell>
                <mxCell id="221" value="Login Details" style="edgeLabel;html=1;align=center;verticalAlign=middle;resizable=0;points=[];" parent="220" vertex="1" connectable="0">
                    <mxGeometry x="0.0942" y="-4" relative="1" as="geometry">
                        <mxPoint x="-11" y="-4" as="offset"/>
                    </mxGeometry>
                </mxCell>
                <mxCell id="225" style="edgeStyle=none;html=1;exitX=1;exitY=0.167;exitDx=0;exitDy=0;exitPerimeter=0;" parent="1" source="215" edge="1">
                    <mxGeometry relative="1" as="geometry">
                        <mxPoint x="290" y="450" as="targetPoint"/>
                        <Array as="points">
                            <mxPoint x="250" y="530"/>
                            <mxPoint x="250" y="450"/>
                        </Array>
                    </mxGeometry>
                </mxCell>
                <mxCell id="226" value="Property Details" style="edgeLabel;html=1;align=center;verticalAlign=middle;resizable=0;points=[];" parent="225" vertex="1" connectable="0">
                    <mxGeometry x="-0.0886" y="-1" relative="1" as="geometry">
                        <mxPoint x="-49" y="-1" as="offset"/>
                    </mxGeometry>
                </mxCell>
                <mxCell id="246" style="edgeStyle=none;html=1;entryX=0;entryY=0.5;entryDx=0;entryDy=0;jumpStyle=arc;" parent="1" source="215" target="198" edge="1">
                    <mxGeometry relative="1" as="geometry">
                        <Array as="points">
                            <mxPoint x="-20" y="700"/>
                        </Array>
                    </mxGeometry>
                </mxCell>
                <mxCell id="247" value="Booking Details" style="edgeLabel;html=1;align=center;verticalAlign=middle;resizable=0;points=[];" parent="246" vertex="1" connectable="0">
                    <mxGeometry x="0.1178" y="-1" relative="1" as="geometry">
                        <mxPoint as="offset"/>
                    </mxGeometry>
                </mxCell>
                <mxCell id="248" style="edgeStyle=none;jumpStyle=arc;html=1;entryX=0;entryY=0.25;entryDx=0;entryDy=0;exitX=0.666;exitY=1.048;exitDx=0;exitDy=0;exitPerimeter=0;" parent="1" source="215" target="198" edge="1">
                    <mxGeometry relative="1" as="geometry">
                        <Array as="points">
                            <mxPoint y="685"/>
                        </Array>
                    </mxGeometry>
                </mxCell>
                <mxCell id="249" value="Approve / Disapprove" style="edgeLabel;html=1;align=center;verticalAlign=middle;resizable=0;points=[];" parent="248" vertex="1" connectable="0">
                    <mxGeometry x="0.2273" relative="1" as="geometry">
                        <mxPoint x="51" as="offset"/>
                    </mxGeometry>
                </mxCell>
                <mxCell id="250" style="edgeStyle=none;jumpStyle=arc;html=1;entryX=0;entryY=0.5;entryDx=0;entryDy=0;exitX=0.25;exitY=1;exitDx=0;exitDy=0;" parent="1" source="215" target="200" edge="1">
                    <mxGeometry relative="1" as="geometry">
                        <Array as="points">
                            <mxPoint x="-50" y="790"/>
                        </Array>
                    </mxGeometry>
                </mxCell>
                <mxCell id="281" value="Profile Detail" style="edgeLabel;html=1;align=center;verticalAlign=middle;resizable=0;points=[];" parent="250" vertex="1" connectable="0">
                    <mxGeometry x="0.4172" y="-1" relative="1" as="geometry">
                        <mxPoint as="offset"/>
                    </mxGeometry>
                </mxCell>
                <mxCell id="286" style="edgeStyle=none;html=1;exitX=0;exitY=1;exitDx=0;exitDy=0;entryX=0;entryY=0.5;entryDx=0;entryDy=0;" parent="1" source="215" target="204" edge="1">
                    <mxGeometry relative="1" as="geometry">
                        <Array as="points">
                            <mxPoint x="-80" y="950"/>
                        </Array>
                    </mxGeometry>
                </mxCell>
                <mxCell id="215" value="Landlord" style="rounded=0;whiteSpace=wrap;html=1;" parent="1" vertex="1">
                    <mxGeometry x="-80" y="520" width="120" height="60" as="geometry"/>
                </mxCell>
                <mxCell id="254" style="edgeStyle=none;jumpStyle=arc;html=1;entryX=0;entryY=0.75;entryDx=0;entryDy=0;exitX=-0.001;exitY=0.663;exitDx=0;exitDy=0;exitPerimeter=0;" parent="1" source="199" target="139" edge="1">
                    <mxGeometry relative="1" as="geometry">
                        <mxPoint x="290" y="717" as="sourcePoint"/>
                        <Array as="points">
                            <mxPoint x="-100" y="720"/>
                            <mxPoint x="-100" y="540"/>
                            <mxPoint x="-100" y="410"/>
                            <mxPoint x="-100" y="355"/>
                        </Array>
                    </mxGeometry>
                </mxCell>
                <mxCell id="256" value="Booking Result" style="edgeLabel;html=1;align=center;verticalAlign=middle;resizable=0;points=[];" parent="254" vertex="1" connectable="0">
                    <mxGeometry x="0.7679" y="2" relative="1" as="geometry">
                        <mxPoint as="offset"/>
                    </mxGeometry>
                </mxCell>
                <mxCell id="291" value="Ratin details" style="edgeLabel;html=1;align=center;verticalAlign=middle;resizable=0;points=[];" parent="1" vertex="1" connectable="0">
                    <mxGeometry x="100" y="930" as="geometry">
                        <mxPoint x="4" y="-1" as="offset"/>
                    </mxGeometry>
                </mxCell>
                <mxCell id="292" value="View Ratings" style="edgeLabel;html=1;align=center;verticalAlign=middle;resizable=0;points=[];" parent="1" vertex="1" connectable="0">
                    <mxGeometry x="100" y="950" as="geometry"/>
                </mxCell>
                <mxCell id="293" value="Propety Details" style="edgeLabel;html=1;align=center;verticalAlign=middle;resizable=0;points=[];" parent="1" vertex="1" connectable="0">
                    <mxGeometry x="120" y="1030" as="geometry"/>
                </mxCell>
                <mxCell id="294" value="Rating Detail" style="edgeLabel;html=1;align=center;verticalAlign=middle;resizable=0;points=[];" parent="1" vertex="1" connectable="0">
                    <mxGeometry x="580" y="950" as="geometry"/>
                </mxCell>
                <mxCell id="295" value="Report Details" style="edgeLabel;html=1;align=center;verticalAlign=middle;resizable=0;points=[];" parent="1" vertex="1" connectable="0">
                    <mxGeometry x="595" y="1110" as="geometry"/>
                </mxCell>
                <mxCell id="318" style="edgeStyle=none;html=1;exitX=0;exitY=0.5;exitDx=0;exitDy=0;entryX=1;entryY=0.25;entryDx=0;entryDy=0;" parent="1" source="298" target="210" edge="1">
                    <mxGeometry relative="1" as="geometry">
                        <Array as="points">
                            <mxPoint x="840" y="655"/>
                            <mxPoint x="840" y="1095"/>
                        </Array>
                    </mxGeometry>
                </mxCell>
                <mxCell id="298" value="Booking" style="shape=partialRectangle;fillColor=none;align=left;verticalAlign=middle;strokeColor=default;spacingLeft=34;rotatable=0;points=[[0,0.5],[1,0.5]];portConstraint=eastwest;dropTarget=0;strokeWidth=1;perimeterSpacing=1;right=0;" parent="1" vertex="1">
                    <mxGeometry x="920" y="640" width="90" height="30" as="geometry"/>
                </mxCell>
                <mxCell id="299" value="D3" style="shape=partialRectangle;top=0;left=0;bottom=0;fillColor=none;stokeWidth=1;dashed=1;align=left;verticalAlign=middle;spacingLeft=4;spacingRight=4;overflow=hidden;rotatable=0;points=[];portConstraint=eastwest;part=1;strokeColor=default;" parent="298" vertex="1" connectable="0">
                    <mxGeometry width="30" height="30" as="geometry"/>
                </mxCell>
                <mxCell id="309" style="edgeStyle=none;html=1;exitX=0.848;exitY=1.119;exitDx=0;exitDy=0;exitPerimeter=0;entryX=1;entryY=0.25;entryDx=0;entryDy=0;" parent="1" source="300" target="204" edge="1">
                    <mxGeometry relative="1" as="geometry">
                        <mxPoint x="1011.2857142857142" y="970" as="targetPoint"/>
                        <Array as="points">
                            <mxPoint x="997" y="935"/>
                        </Array>
                    </mxGeometry>
                </mxCell>
                <mxCell id="300" value="Rating" style="shape=partialRectangle;fillColor=none;align=left;verticalAlign=middle;strokeColor=default;spacingLeft=34;rotatable=0;points=[[0,0.5],[1,0.5]];portConstraint=eastwest;dropTarget=0;strokeWidth=1;perimeterSpacing=1;right=0;" parent="1" vertex="1">
                    <mxGeometry x="920" y="770" width="90" height="30" as="geometry"/>
                </mxCell>
                <mxCell id="301" value="D4" style="shape=partialRectangle;top=0;left=0;bottom=0;fillColor=none;stokeWidth=1;dashed=1;align=left;verticalAlign=middle;spacingLeft=4;spacingRight=4;overflow=hidden;rotatable=0;points=[];portConstraint=eastwest;part=1;strokeColor=default;" parent="300" vertex="1" connectable="0">
                    <mxGeometry width="30" height="30" as="geometry"/>
                </mxCell>
                <mxCell id="311" value="Booking Detail" style="edgeLabel;html=1;align=center;verticalAlign=middle;resizable=0;points=[];" parent="1" vertex="1" connectable="0">
                    <mxGeometry x="780" y="690" as="geometry"/>
                </mxCell>
                <mxCell id="312" value="Rating Detail" style="edgeLabel;html=1;align=center;verticalAlign=middle;resizable=0;points=[];" parent="1" vertex="1" connectable="0">
                    <mxGeometry x="800.0038095238097" y="869.9999999999998" as="geometry">
                        <mxPoint x="-8" y="-1" as="offset"/>
                    </mxGeometry>
                </mxCell>
                <mxCell id="313" value="Rating Detail" style="edgeLabel;html=1;align=center;verticalAlign=middle;resizable=0;points=[];" parent="1" vertex="1" connectable="0">
                    <mxGeometry x="800.0038095238097" y="939.9999999999998" as="geometry">
                        <mxPoint x="-8" y="-1" as="offset"/>
                    </mxGeometry>
                </mxCell>
                <mxCell id="317" value="Room Detail" style="edgeLabel;html=1;align=center;verticalAlign=middle;resizable=0;points=[];" parent="1" vertex="1" connectable="0">
                    <mxGeometry x="699.9990476190477" y="1030" as="geometry"/>
                </mxCell>
                <mxCell id="319" value="Booking Detail" style="edgeLabel;html=1;align=center;verticalAlign=middle;resizable=0;points=[];" parent="1" vertex="1" connectable="0">
                    <mxGeometry x="590" y="1090" as="geometry"/>
                </mxCell>
            </root>
        </mxGraphModel>
    </diagram>
</mxfile>